<?xml version="1.0" encoding="utf-8"?>
<!-- Generator: Adobe Illustrator 28.0.0, SVG Export Plug-In . SVG Version: 6.00 Build 0)  -->
<svg version="1.1" id="Layer_1" xmlns="http://www.w3.org/2000/svg" xmlns:xlink="http://www.w3.org/1999/xlink" x="0px" y="0px"
	 viewBox="0 0 16 16" style="enable-background:new 0 0 16 16;" xml:space="preserve">
<style type="text/css">
	.st0{fill-rule:evenodd;clip-rule:evenodd;fill:#FFFFFF;}
</style>
<g>
	<g>
		<path class="st0" d="M8,0.9c0.2,0,0.4,0.2,0.4,0.4c0,0,0,0,0,0l0,6.3l6.3,0c0.2,0,0.4,0.2,0.4,0.4c0,0.2-0.2,0.4-0.4,0.4H8
			C7.8,8.4,7.6,8.2,7.6,8c0,0,0,0,0,0V1.3C7.6,1.1,7.8,0.9,8,0.9C8,0.9,8,0.9,8,0.9z"/>
		<path class="st0" d="M8,0.9c0.2,0,0.4,0.2,0.4,0.4V8c0,0,0,0,0,0c0,0.2-0.2,0.4-0.4,0.4H1.3C1.1,8.4,0.9,8.2,0.9,8
			c0-0.2,0.2-0.4,0.4-0.4l6.3,0l0-6.3c0,0,0,0,0,0C7.6,1.1,7.8,0.9,8,0.9C8,0.9,8,0.9,8,0.9z"/>
	</g>
	<g>
		<path class="st0" d="M8,15.1c-0.2,0-0.4-0.2-0.4-0.4c0,0,0,0,0,0l0-6.3l-6.3,0C1.1,8.4,0.9,8.2,0.9,8s0.2-0.4,0.4-0.4l6.7,0
			c0.2,0,0.4,0.2,0.4,0.4c0,0,0,0,0,0v6.7C8.4,14.9,8.2,15.1,8,15.1C8,15.1,8,15.1,8,15.1z"/>
		<path class="st0" d="M8,15.1c-0.2,0-0.4-0.2-0.4-0.4V8c0,0,0,0,0,0c0-0.2,0.2-0.4,0.4-0.4l6.7,0c0.2,0,0.4,0.2,0.4,0.4
			s-0.2,0.4-0.4,0.4l-6.3,0l0,6.3c0,0,0,0,0,0C8.4,14.9,8.2,15.1,8,15.1C8,15.1,8,15.1,8,15.1z"/>
	</g>
</g>
</svg>
